# xmcd CD database file
#
# Track frame offsets:
#	150
#	3687
#	28742
#	53225
#	80917
#	104937
#	127225
#	146422
#	172087
#	197575
#	221227
#	244832
#	271122
#	293105
#
# Disc length: 4654 seconds
#
# Revision: 0
# Processed by: cddbd v1.4PL0 Copyright (c) Steve Scherf et al.
# Submitted via: CDex 1.50beta8
#
DISCID=e3122c0e
DTITLE=LAURYN HILL - The Miseducation Of Lauryn Hill
DYEAR=1998
DGENRE=Rhythmic Soul
TTITLE0=Intro
TTITLE1=Lost Ones
TTITLE2=Ex-Factor
TTITLE3=To Zion
TTITLE4=Doo Wop (That Thing)
TTITLE5=Superstar
TTITLE6=Final Hour
TTITLE7=When It Hurts So Bad
TTITLE8=I Used To Love Him
TTITLE9=Forgive Them Father
TTITLE10=Every Ghetto, Every City
TTITLE11=Nothing Even Matters
TTITLE12=Everything Is Everything
TTITLE13=The Miseducation Of Lauryn Hill
EXTD=YEAR: 1998
EXTT0=
EXTT1=
EXTT2=
EXTT3=
EXTT4=
EXTT5=
EXTT6=
EXTT7=
EXTT8=
EXTT9=
EXTT10=
EXTT11=
EXTT12=
EXTT13=
PLAYORDER=
